<svg width="44" height="44" viewBox="0 0 44 44" fill="none" xmlns="http://www.w3.org/2000/svg">
<g clip-path="url(#clip0_152_1090)">
<path d="M11.4648 3.51002C12.843 3.81999 13.858 4.30272 14.6254 4.86105C17.9986 3.92488 21.9071 3.54799 25.5996 3.91028C21.8522 -0.322547 16.6484 -0.837067 11.3151 1.02333C10.0319 1.47093 10.201 3.25521 11.4648 3.51002ZM5.99191 26.7882C8.55239 24.5536 11.4702 24.0424 14.6643 25.269C17.6312 26.445 22.4832 27.834 26.9078 28.5468C26.5887 28.0449 26.5859 28.0418 26.5642 28.0042C25.3707 25.9298 22.7534 20.5465 24.2199 15.3741C25.0842 12.326 27.1956 9.87369 30.4957 8.08512C30.5227 8.07 30.5178 8.07274 31.0534 7.7797C27.0265 6.25607 22.4509 6.03563 18.2208 6.71621C14.3927 7.32859 12.396 8.29431 10.521 9.53349C1.4047 15.5513 -1.20081 23.7116 0.479438 30.5612L0.48004 30.5632C2.44955 38.584 10.6838 43.6061 11.0334 43.816C11.2297 43.9339 11.4551 43.9999 11.7076 43.9999C12.0686 43.9999 14.3358 43.9235 15.9095 42.0699C17.3004 40.4317 17.6963 37.9929 17.0858 34.8216C16.9312 34.0174 16.0631 33.5522 15.3003 33.8861C15.279 33.8954 13.1405 34.817 10.5328 34.7192C7.3999 34.6012 4.93684 33.0927 3.20264 30.2328C3.64989 29.4552 4.58769 28.0137 5.99191 26.7882Z" fill="#496192"/>
<path d="M43.9832 25.9295C42.8497 18.5438 39.616 12.4872 33.9224 9.14795C30.9193 10.7912 31.9553 10.2248 31.731 10.3471C29.0605 11.7926 27.3676 13.7206 26.6994 16.0773C25.5059 20.2865 27.7474 24.8863 28.7843 26.6947L30.2303 28.9693C34.5388 29.3622 39.0093 29.1249 42.7859 27.5078C43.2351 27.3153 43.5548 27.2031 43.7967 26.824C43.9661 26.5587 44.0324 26.2405 43.9832 25.9295ZM34.3879 19.1718C33.6444 19.1718 33.0883 18.5781 33.0883 17.8831C33.0883 17.187 33.6455 16.5944 34.3879 16.5944C35.0996 16.5944 35.6766 17.1714 35.6766 17.8831C35.6766 18.5948 35.0996 19.1718 34.3879 19.1718Z" fill="#496192"/>
</g>
<defs>
<clipPath id="clip0_152_1090">
<rect width="44" height="44" fill="white"/>
</clipPath>
</defs>
</svg>
