<svg width="44" height="44" viewBox="0 0 44 44" fill="none" xmlns="http://www.w3.org/2000/svg">
<path d="M0.156122 13.5575C1.01071 17.5642 4.60849 20.5807 8.90474 20.5807C13.7877 20.5807 17.7603 16.6081 17.7603 11.7252C17.7603 10.712 17.5915 9.7226 17.2682 8.78913L0.156122 13.5575ZM44 13.0972C44 12.3846 43.4223 11.8069 42.7097 11.8069H23.2697C22.5571 11.8069 21.9794 12.3846 21.9794 13.0972V17.312H44V13.0972ZM19.2269 24.1074C19.2269 24.82 19.8046 25.3977 20.5171 25.3977H23.7456C22.37 27.2387 20.9198 28.2263 19.4183 28.3381C16.9935 28.5195 14.9137 26.3817 14.3193 25.7044C14.0461 24.546 13.6908 23.4084 13.256 22.3004C11.914 22.8546 10.4445 23.1612 8.90474 23.1612C7.4057 23.1612 5.97273 22.8754 4.65786 22.3561C3.70806 24.6243 2.79747 27.8067 2.79747 31.677V39.9347C2.79747 40.6473 3.37517 41.225 4.08774 41.225H13.7217C14.4343 41.225 15.012 40.6473 15.012 39.9347V31.677C15.012 30.9614 14.9827 30.2698 14.9298 29.6027C16.0738 30.3294 17.5081 30.9295 19.1257 30.9295C19.2795 30.9295 19.4351 30.9241 19.5921 30.9128C22.3072 30.7182 24.7458 28.8633 26.8482 25.3977H39.7851C40.4977 25.3977 41.0754 24.82 41.0754 24.1074V19.8926H19.2269V24.1074ZM20.4697 3.89093C20.2784 3.2046 19.5674 2.80307 18.8805 2.99446L13.9369 4.37212C12.466 3.33423 10.7262 2.77502 8.90474 2.77502C6.5395 2.77502 4.3002 3.71322 2.5992 5.41672C1.09303 6.92521 0.187003 8.85622 0 10.9222L3.06559 10.068C3.12348 10.06 3.18145 10.0482 3.23926 10.0321L19.5732 5.4802C20.2597 5.28898 20.661 4.57744 20.4697 3.89093Z" fill="#496192"/>
</svg>
